<svg xmlns="http://www.w3.org/2000/svg" xmlns:xlink="http://www.w3.org/1999/xlink" viewBox="0 0 512 512" width="512" height="512" style="width: 100%; height: 100%; transform: translate3d(0,0,0); content-visibility: visible;" preserveAspectRatio="xMidYMid meet"><defs><clipPath id="__lottie_element_2"><rect width="512" height="512" x="0" y="0"></rect></clipPath><clipPath id="__lottie_element_4"><path d="M0,0 L100,0 L100,101 L0,101z"></path></clipPath></defs><g clip-path="url(#__lottie_element_2)"><g clip-path="url(#__lottie_element_4)" style="display: block;" transform="matrix(5.06930685043335,0,0,5.06930685043335,2.534653425216675,0)" opacity="1"><g style="display: block;" transform="matrix(1,0,0,1,0,0)" opacity="1"><g opacity="1" transform="matrix(1,0,0,1,0,0)"><path fill-rule="evenodd" fill="rgb(255,255,255)" fill-opacity="1" d=" M57.34299850463867,16.25 C52.59319305419922,14.568199157714844 47.40680694580078,14.568199157714844 42.65700149536133,16.25 C42.65700149536133,16.25 24.059999465942383,22.833999633789062 24.059999465942383,22.833999633789062 C20.076740264892578,24.24451446533203 17.39818572998047,28.034374237060547 17.398000717163086,32.2599983215332 C17.398000717163086,32.2599983215332 17.398000717163086,43.81800079345703 17.398000717163086,43.81800079345703 C17.39756965637207,58.349205017089844 24.59566307067871,71.97501373291016 36.5989990234375,80.16500091552734 C36.5989990234375,80.16500091552734 40.41899871826172,82.77100372314453 40.41899871826172,82.77100372314453 C46.185428619384766,86.70523071289062 53.814571380615234,86.70523071289062 59.58100128173828,82.77100372314453 C59.58100128173828,82.77100372314453 63.4010009765625,80.16500091552734 63.4010009765625,80.16500091552734 C75.40471649169922,71.9752426147461 82.60320281982422,58.34939193725586 82.60299682617188,43.81800079345703 C82.60299682617188,43.81800079345703 82.60299682617188,32.2599983215332 82.60299682617188,32.2599983215332 C82.60281372070312,28.034374237060547 79.92426300048828,24.24451446533203 75.94100189208984,22.833999633789062 C75.94100189208984,22.833999633789062 57.34299850463867,16.249000549316406 57.34299850463867,16.249000549316406 C57.34299850463867,16.249000549316406 57.34299850463867,16.25 57.34299850463867,16.25z M23.398000717163086,32.2599983215332 C23.398000717163086,32.2599983215332 23.398000717163086,43.81800079345703 23.398000717163086,43.81800079345703 C23.39789390563965,56.367530822753906 29.614534378051758,68.13501739501953 39.98099899291992,75.20800018310547 C39.98099899291992,75.20800018310547 43.80099868774414,77.81400299072266 43.80099868774414,77.81400299072266 C47.53223419189453,80.35970306396484 52.46876907348633,80.35970306396484 56.20000076293945,77.81400299072266 C56.20000076293945,77.81400299072266 60.02000045776367,75.20800018310547 60.02000045776367,75.20800018310547 C70.38646697998047,68.13501739501953 76.60310363769531,56.367530822753906 76.60299682617188,43.81800079345703 C76.60299682617188,43.81800079345703 76.60299682617188,32.2599983215332 76.60299682617188,32.2599983215332 C76.60272979736328,30.569843292236328 75.53124237060547,29.05409049987793 73.93800354003906,28.489999771118164 C73.93800354003906,28.489999771118164 55.34000015258789,21.90399932861328 55.34000015258789,21.90399932861328 C51.88551330566406,20.68080711364746 48.113487243652344,20.68080711364746 44.659000396728516,21.90399932861328 C44.659000396728516,21.90399932861328 26.062000274658203,28.489999771118164 26.062000274658203,28.489999771118164 C24.468753814697266,29.05409049987793 23.397274017333984,30.569843292236328 23.39699935913086,32.2599983215332 C23.39699935913086,32.2599983215332 23.398000717163086,32.2599983215332 23.398000717163086,32.2599983215332z"></path></g><g opacity="1" transform="matrix(1,0,0,1,0,0)"><path stroke-linecap="round" stroke-linejoin="round" fill-opacity="0" stroke="rgb(255,255,255)" stroke-opacity="1" stroke-width="5.5" d=" M38.375,58.500999450683594 C38.375,58.500999450683594 48.244998931884766,51.38399887084961 48.244998931884766,51.38399887084961 C49.29022216796875,50.63008117675781 50.70977783203125,50.63008117675781 51.755001068115234,51.38399887084961 C51.755001068115234,51.38399887084961 61.625,58.500999450683594 61.625,58.500999450683594 M38.375,44.11899948120117 C38.375,44.11899948120117 48.244998931884766,37 48.244998931884766,37 C49.29022216796875,36.24607849121094 50.70977783203125,36.24607849121094 51.755001068115234,37 C51.755001068115234,37 61.625,44.11800003051758 61.625,44.11800003051758"></path></g></g></g></g></svg>