<svg xmlns="http://www.w3.org/2000/svg" xmlns:xlink="http://www.w3.org/1999/xlink" viewBox="0 0 512 512" width="512" height="512" style="width: 100%; height: 100%; transform: translate3d(0,0,0); content-visibility: visible;" preserveAspectRatio="xMidYMid meet"><defs><clipPath id="__lottie_element_2"><rect width="512" height="512" x="0" y="0"></rect></clipPath><clipPath id="__lottie_element_4"><path d="M0,0 L107,0 L107,107 L0,107z"></path></clipPath></defs><g clip-path="url(#__lottie_element_2)"><g clip-path="url(#__lottie_element_4)" style="display: block;" transform="matrix(4.785046577453613,0,0,4.785046577453613,0,0)" opacity="1"><g style="display: block;" transform="matrix(1.333299994468689,0,0,1.333299994468689,0,0)" opacity="1"><g opacity="1" transform="matrix(1,0,0,1,0,0)"><g opacity="1" transform="matrix(1,0,0,1,0,0)"><path fill="rgb(255,255,255)" fill-opacity="1" d=" M54.41999816894531,21.84000015258789 C54.41999816894531,21.84000015258789 51.45000076293945,33.97999954223633 51.45000076293945,33.97999954223633 C50.779998779296875,33.68000030517578 50.02000045776367,33.52000045776367 49.189998626708984,33.52000045776367 C49.189998626708984,33.52000045776367 44.650001525878906,33.52000045776367 44.650001525878906,33.52000045776367 C44.650001525878906,33.52000045776367 47.369998931884766,22.549999237060547 47.369998931884766,22.549999237060547 C47.369998931884766,22.549999237060547 50.220001220703125,19.540000915527344 50.220001220703125,19.540000915527344 C51.970001220703125,17.700000762939453 55.02000045776367,19.3799991607666 54.41999816894531,21.84000015258789 C54.41999816894531,21.84000015258789 54.41999816894531,21.84000015258789 54.41999816894531,21.84000015258789z M50.459999084472656,40.25 C50.459999084472656,40.25 48.54999923706055,42.22999954223633 48.54999923706055,42.22999954223633 C48.54999923706055,42.22999954223633 48.560001373291016,42.22999954223633 48.560001373291016,42.22999954223633 C48.560001373291016,42.22999954223633 31.450000762939453,60.0099983215332 31.450000762939453,60.0099983215332 C30.059999465942383,61.459999084472656 27.65999984741211,60.130001068115234 28.139999389648438,58.18000030517578 C28.139999389648438,58.18000030517578 32.04999923706055,42.400001525878906 32.04999923706055,42.400001525878906 C32.04999923706055,42.400001525878906 22.709999084472656,42.400001525878906 22.709999084472656,42.400001525878906 C21.15999984741211,42.400001525878906 20.360000610351562,40.529998779296875 21.440000534057617,39.40999984741211 C21.440000534057617,39.40999984741211 40.45000076293945,19.65999984741211 40.45000076293945,19.65999984741211 C41.84000015258789,18.209999084472656 44.25,19.540000915527344 43.77000045776367,21.489999771118164 C43.77000045776367,21.489999771118164 39.86000061035156,37.27000045776367 39.86000061035156,37.27000045776367 C39.86000061035156,37.27000045776367 49.189998626708984,37.27000045776367 49.189998626708984,37.27000045776367 C50.459999084472656,37.27000045776367 51.220001220703125,38.5099983215332 50.869998931884766,39.58000183105469 C50.790000915527344,39.81999969482422 50.65999984741211,40.040000915527344 50.459999084472656,40.25 C50.459999084472656,40.25 50.459999084472656,40.25 50.459999084472656,40.25z M38.880001068115234,58.119998931884766 C38.880001068115234,58.119998931884766 39.02000045776367,57.54999923706055 39.02000045776367,57.54999923706055 C39.02000045776367,57.54999923706055 53.15999984741211,42.849998474121094 53.15999984741211,42.849998474121094 C54.9900016784668,40.95000076293945 55.099998474121094,38.36000061035156 54.040000915527344,36.38999938964844 C54.040000915527344,36.38999938964844 60.470001220703125,36.38999938964844 60.470001220703125,36.38999938964844 C62.02000045776367,36.38999938964844 62.81999969482422,38.2599983215332 61.75,39.380001068115234 C61.75,39.380001068115234 42.20000076293945,59.939998626708984 42.20000076293945,59.939998626708984 C40.81999969482422,61.400001525878906 38.400001525878906,60.06999969482422 38.880001068115234,58.119998931884766 C38.880001068115234,58.119998931884766 38.880001068115234,58.119998931884766 38.880001068115234,58.119998931884766z"></path></g></g></g></g></g></svg>