<svg xmlns="http://www.w3.org/2000/svg" xmlns:xlink="http://www.w3.org/1999/xlink" viewBox="0 0 512 512" width="512" height="512" style="width: 100%; height: 100%; transform: translate3d(0,0,0); content-visibility: visible;" preserveAspectRatio="xMidYMid meet"><defs><clipPath id="__lottie_element_2"><rect width="512" height="512" x="0" y="0"></rect></clipPath><clipPath id="__lottie_element_4"><path d="M0,0 L100,0 L100,101 L0,101z"></path></clipPath></defs><g clip-path="url(#__lottie_element_2)"><g clip-path="url(#__lottie_element_4)" style="display: block;" transform="matrix(5.06930685043335,0,0,5.06930685043335,2.534653425216675,0)" opacity="1"><g style="display: block;" transform="matrix(1,0,0,1,0,0)" opacity="1"><g opacity="1" transform="matrix(1,0,0,1,0,0)"><path fill-rule="evenodd" fill="rgb(255,255,255)" fill-opacity="1" d=" M17.889999389648438,61.59400177001953 C19.261459350585938,61.59400177001953 20.389999389648438,60.465457916259766 20.389999389648438,59.09400177001953 C20.389999389648438,59.09400177001953 20.389999389648438,53.029998779296875 20.389999389648438,53.029998779296875 C20.389999389648438,53.029998779296875 26.452999114990234,53.029998779296875 26.452999114990234,53.029998779296875 C27.824459075927734,53.029998779296875 28.952999114990234,51.901458740234375 28.952999114990234,50.529998779296875 C28.952999114990234,49.158538818359375 27.824459075927734,48.029998779296875 26.452999114990234,48.029998779296875 C26.452999114990234,48.029998779296875 20.391000747680664,48.029998779296875 20.391000747680664,48.029998779296875 C20.391000747680664,48.029998779296875 20.391000747680664,41.970001220703125 20.391000747680664,41.970001220703125 C20.391000747680664,40.598541259765625 19.26245880126953,39.470001220703125 17.891000747680664,39.470001220703125 C16.519540786743164,39.470001220703125 15.390999794006348,40.598541259765625 15.390999794006348,41.970001220703125 C15.390999794006348,41.970001220703125 15.390999794006348,48.03200149536133 15.390999794006348,48.03200149536133 C15.390999794006348,48.03200149536133 9.32800006866455,48.03200149536133 9.32800006866455,48.03200149536133 C7.956540584564209,48.03200149536133 6.828000068664551,49.16054153442383 6.828000068664551,50.53200149536133 C6.828000068664551,51.90345764160156 7.956540584564209,53.03200149536133 9.32800006866455,53.03200149536133 C9.32800006866455,53.03200149536133 15.390999794006348,53.03200149536133 15.390999794006348,53.03200149536133 C15.390999794006348,53.03200149536133 15.390999794006348,59.095001220703125 15.390999794006348,59.095001220703125 C15.390999794006348,60.466461181640625 16.519540786743164,61.595001220703125 17.891000747680664,61.595001220703125 C17.891000747680664,61.595001220703125 17.889999389648438,61.59400177001953 17.889999389648438,61.59400177001953z"></path></g><g opacity="1" transform="matrix(1,0,0,1,0,0)"><path stroke-linecap="round" stroke-linejoin="round" fill-opacity="0" stroke="rgb(255,255,255)" stroke-opacity="1" stroke-width="6" d=" M44.10900115966797,28.53099822998047 C50.179901123046875,28.53099822998047 55.10900115966797,33.46009826660156 55.10900115966797,39.53099822998047 C55.10900115966797,45.601898193359375 50.179901123046875,50.53099822998047 44.10900115966797,50.53099822998047 C38.03810119628906,50.53099822998047 33.10900115966797,45.601898193359375 33.10900115966797,39.53099822998047 C33.10900115966797,33.46009826660156 38.03810119628906,28.53099822998047 44.10900115966797,28.53099822998047z"></path></g><g opacity="1" transform="matrix(1,0,0,1,0,0)"><path stroke-linecap="round" stroke-linejoin="round" fill-opacity="0" stroke="rgb(255,255,255)" stroke-opacity="1" stroke-width="6" d=" M73.35900115966797,34.53199768066406 C77.99827575683594,34.53199768066406 81.76499938964844,38.298728942871094 81.76499938964844,42.9379997253418 C81.76499938964844,47.5772705078125 77.99827575683594,51.34400177001953 73.35900115966797,51.34400177001953 C68.7197265625,51.34400177001953 64.9530029296875,47.5772705078125 64.9530029296875,42.9379997253418 C64.9530029296875,38.298728942871094 68.7197265625,34.53199768066406 73.35900115966797,34.53199768066406z"></path></g><g opacity="1" transform="matrix(1,0,0,1,0,0)"><path stroke-linecap="round" stroke-linejoin="round" fill-opacity="0" stroke="rgb(255,255,255)" stroke-opacity="1" stroke-width="6" d=" M25.327999114990234,71.96399688720703 C25.327999114990234,71.96399688720703 25.327999114990234,71.96399688720703 25.327999114990234,71.96399688720703 C25.327999114990234,65.51200103759766 30.558000564575195,60.28099822998047 37.01100158691406,60.28099822998047 C37.01100158691406,60.28099822998047 52.64099884033203,60.28099822998047 52.64099884033203,60.28099822998047 C59.64799880981445,60.28099822998047 65.3280029296875,65.96099853515625 65.3280029296875,72.96900177001953 C65.3280029296875,72.96900177001953 65.3280029296875,72.96900177001953 65.3280029296875,72.96900177001953"></path></g><g opacity="1" transform="matrix(1,0,0,1,0,0)"><path fill-rule="evenodd" fill="rgb(255,255,255)" fill-opacity="1" d=" M71.98999786376953,63.96900177001953 C71.98999786376953,63.96900177001953 78.1719970703125,63.96900177001953 78.1719970703125,63.96900177001953 C83.1092529296875,63.96900177001953 87.1719970703125,68.03174591064453 87.1719970703125,72.96900177001953 C87.1719970703125,74.61475372314453 88.5262451171875,75.96900177001953 90.1719970703125,75.96900177001953 C91.8177490234375,75.96900177001953 93.1719970703125,74.61475372314453 93.1719970703125,72.96900177001953 C93.1719970703125,64.68499755859375 86.45600128173828,57.96900177001953 78.1719970703125,57.96900177001953 C78.1719970703125,57.96900177001953 67.4020004272461,57.96900177001953 67.4020004272461,57.96900177001953 C69.29466247558594,59.6627197265625 70.85093688964844,61.698387145996094 71.98899841308594,63.96900177001953 C71.98899841308594,63.96900177001953 71.98999786376953,63.96900177001953 71.98999786376953,63.96900177001953z"></path></g></g></g></g></svg>