<svg xmlns="http://www.w3.org/2000/svg" xmlns:xlink="http://www.w3.org/1999/xlink" viewBox="0 0 512 512" width="512" height="512" style="width: 100%; height: 100%; transform: translate3d(0,0,0); content-visibility: visible;" preserveAspectRatio="xMidYMid meet"><defs><clipPath id="__lottie_element_2"><rect width="512" height="512" x="0" y="0"></rect></clipPath><clipPath id="__lottie_element_4"><path d="M0,0 L101,0 L101,100 L0,100z"></path></clipPath></defs><g clip-path="url(#__lottie_element_2)"><g clip-path="url(#__lottie_element_4)" style="display: block;" transform="matrix(5.06930685043335,0,0,5.06930685043335,0,2.534653425216675)" opacity="1"><g style="display: block;" transform="matrix(1,0,0,1,0,0)" opacity="1"><g opacity="1" transform="matrix(1,0,0,1,0,0)"><path fill-rule="evenodd" fill="rgb(255,255,255)" fill-opacity="1" d=" M34.64799880981445,20 C29.900556564331055,20 25.993999481201172,23.90655517578125 25.993999481201172,28.65399932861328 C25.993999481201172,28.65399932861328 25.993999481201172,71.34600067138672 25.993999481201172,71.34600067138672 C25.993999481201172,76.09344482421875 29.900556564331055,80 34.64799880981445,80 C34.64799880981445,80 66.64800262451172,80 66.64800262451172,80 C71.39544677734375,80 75.302001953125,76.09344482421875 75.302001953125,71.34600067138672 C75.302001953125,71.34600067138672 75.302001953125,46.47700119018555 75.302001953125,46.47700119018555 C75.30184936523438,44.49565505981445 74.50841522216797,42.59458541870117 73.0999984741211,41.20100021362305 C73.0999984741211,41.20100021362305 53.845001220703125,22.14699935913086 53.845001220703125,22.14699935913086 C52.45585250854492,20.772186279296875 50.57844161987305,20.00014877319336 48.624000549316406,20 C48.624000549316406,20 34.64799880981445,20 34.64799880981445,20 C34.64799880981445,20 34.64799880981445,20 34.64799880981445,20z M66.72100067138672,41.92399978637695 C66.72100067138672,41.92399978637695 53.14799880981445,28.489999771118164 53.14799880981445,28.489999771118164 C53.14799880981445,28.489999771118164 53.14799880981445,34.39099884033203 53.14799880981445,34.39099884033203 C53.14799880981445,36.244998931884766 53.150001525878906,37.47700119018555 53.23099899291992,38.422000885009766 C53.308998107910156,39.334999084472656 53.446998596191406,39.74599838256836 53.58599853515625,40.00299835205078 C53.9244270324707,40.63002395629883 54.4389762878418,41.14457321166992 55.066001892089844,41.483001708984375 C55.32400131225586,41.62300109863281 55.73400115966797,41.76100158691406 56.64799880981445,41.8390007019043 C57.59199905395508,41.91899871826172 58.82500076293945,41.922000885009766 60.678001403808594,41.922000885009766 C60.678001403808594,41.922000885009766 66.72100067138672,41.922000885009766 66.72100067138672,41.922000885009766 C66.72100067138672,41.922000885009766 66.72100067138672,41.92399978637695 66.72100067138672,41.92399978637695z M30.993999481201172,28.65399932861328 C30.993999481201172,26.64947509765625 32.64347457885742,25 34.64799880981445,25 C34.64799880981445,25 48.14799880981445,25 48.14799880981445,25 C48.14799880981445,25 48.14799880981445,34.49800109863281 48.14799880981445,34.49800109863281 C48.14799880981445,36.21799850463867 48.14799880981445,37.66699981689453 48.249000549316406,38.849998474121094 C48.35499954223633,40.09000015258789 48.58599853515625,41.268001556396484 49.18600082397461,42.37900161743164 C49.98765563964844,43.864402770996094 51.20659637451172,45.08334732055664 52.69200134277344,45.8849983215332 C53.801998138427734,46.48500061035156 54.981998443603516,46.71500015258789 56.22100067138672,46.821998596191406 C57.40399932861328,46.92300033569336 58.85300064086914,46.92300033569336 60.573001861572266,46.92300033569336 C60.573001861572266,46.92300033569336 70.302001953125,46.92300033569336 70.302001953125,46.92300033569336 C70.302001953125,46.92300033569336 70.302001953125,71.34600067138672 70.302001953125,71.34600067138672 C70.302001953125,73.35052490234375 68.65252685546875,75 66.64800262451172,75 C66.64800262451172,75 34.64799880981445,75 34.64799880981445,75 C32.64347457885742,75 30.993999481201172,73.35052490234375 30.993999481201172,71.34600067138672 C30.993999481201172,71.34600067138672 30.993999481201172,28.65399932861328 30.993999481201172,28.65399932861328 C30.993999481201172,28.65399932861328 30.993999481201172,28.65399932861328 30.993999481201172,28.65399932861328z"></path></g></g></g></g></svg>