<svg xmlns="http://www.w3.org/2000/svg" xmlns:xlink="http://www.w3.org/1999/xlink" viewBox="0 0 512 512" width="512" height="512" style="width: 100%; height: 100%; transform: translate3d(0,0,0); content-visibility: visible;" preserveAspectRatio="xMidYMid meet"><defs><clipPath id="__lottie_element_2"><rect width="512" height="512" x="0" y="0"></rect></clipPath><clipPath id="__lottie_element_4"><path d="M0,0 L101,0 L101,100 L0,100z"></path></clipPath></defs><g clip-path="url(#__lottie_element_2)"><g clip-path="url(#__lottie_element_4)" style="display: block;" transform="matrix(5.06930685043335,0,0,5.06930685043335,0,2.534653425216675)" opacity="1"><g style="display: block;" transform="matrix(1,0,0,1,0,0)" opacity="1"><g opacity="1" transform="matrix(1,0,0,1,0,0)"><path stroke-linecap="round" stroke-linejoin="round" fill-opacity="0" stroke="rgb(255,255,255)" stroke-opacity="1" stroke-width="5.5" d=" M49.625,20.055999755859375 C49.625,20.055999755859375 33.75,20.055999755859375 33.75,20.055999755859375 C26.56999969482422,20.055999755859375 20.75,25.875999450683594 20.75,33.055999755859375 C20.75,33.055999755859375 20.75,67.05599975585938 20.75,67.05599975585938 C20.75,74.23600006103516 26.56999969482422,80.05599975585938 33.75,80.05599975585938 C33.75,80.05599975585938 67.75,80.05599975585938 67.75,80.05599975585938 C74.93000030517578,80.05599975585938 80.75,74.23600006103516 80.75,67.05599975585938 C80.75,67.05599975585938 80.75,51.555999755859375 80.75,51.555999755859375"></path></g><g opacity="1" transform="matrix(1,0,0,1,0,0)"><path stroke-linecap="round" stroke-linejoin="round" fill-opacity="0" stroke="rgb(255,255,255)" stroke-opacity="1" stroke-width="5.5" d=" M60.58000183105469,29.3700008392334 C60.58000183105469,29.3700008392334 72.2300033569336,41.02000045776367 72.2300033569336,41.02000045776367 M60.57899856567383,29.371000289916992 C60.57899856567383,29.371000289916992 43.07899856567383,46.87099838256836 43.07899856567383,46.87099838256836 C38.53900146484375,51.4119987487793 36.18899917602539,57.99800109863281 37.0890007019043,62.770999908447266 C37.25456619262695,63.652278900146484 37.947723388671875,64.3454360961914 38.82899856567383,64.51100158691406 C43.60200119018555,65.41000366210938 50.1879997253418,63.06100082397461 54.72800064086914,58.520999908447266 C54.72800064086914,58.520999908447266 72.22799682617188,41.020999908447266 72.22799682617188,41.020999908447266 M60.58000183105469,29.371000289916992 C60.58000183105469,29.371000289916992 65.79399871826172,24.1560001373291 65.79399871826172,24.1560001373291 C68.50921630859375,21.440509796142578 72.97850799560547,21.44078826904297 75.69400024414062,24.1560001373291 C75.69400024414062,24.1560001373291 76.56900024414062,25.0310001373291 76.56900024414062,25.0310001373291 C76.56900024414062,25.0310001373291 77.44400024414062,25.9060001373291 77.44400024414062,25.9060001373291 C80.15949249267578,28.621212005615234 80.15921020507812,33.090511322021484 77.44400024414062,35.805999755859375 C77.44400024414062,35.805999755859375 72.22899627685547,41.02000045776367 72.22899627685547,41.02000045776367"></path></g></g></g></g></svg>