<svg xmlns="http://www.w3.org/2000/svg" xmlns:xlink="http://www.w3.org/1999/xlink" viewBox="0 0 512 512" width="512" height="512" style="width: 100%; height: 100%; transform: translate3d(0,0,0); content-visibility: visible;" preserveAspectRatio="xMidYMid meet"><defs><clipPath id="__lottie_element_2"><rect width="512" height="512" x="0" y="0"></rect></clipPath><clipPath id="__lottie_element_4"><path d="M0,0 L100,0 L100,100 L0,100z"></path></clipPath></defs><g clip-path="url(#__lottie_element_2)"><g clip-path="url(#__lottie_element_4)" style="display: block;" transform="matrix(5.119999885559082,0,0,5.119999885559082,0,0)" opacity="1"><g style="display: block;" transform="matrix(1,0,0,1,0,0)" opacity="1"><g opacity="1" transform="matrix(1,0,0,1,0,0)"><path fill-rule="evenodd" fill="rgb(255,255,255)" fill-opacity="1" d=" M69.31300354003906,53.077999114990234 C71.58441162109375,53.077999114990234 73.45349884033203,51.20891189575195 73.45349884033203,48.9375 C73.45349884033203,46.66608810424805 71.58441162109375,44.797000885009766 69.31300354003906,44.797000885009766 C67.04158782958984,44.797000885009766 65.17250061035156,46.66608810424805 65.17250061035156,48.9375 C65.17250061035156,51.20891189575195 67.04158782958984,53.077999114990234 69.31300354003906,53.077999114990234 C69.31300354003906,53.077999114990234 69.31300354003906,53.077999114990234 69.31300354003906,53.077999114990234z M74.56300354003906,37.5 C74.56300354003906,37.5 64.06300354003906,37.5 64.06300354003906,37.5 C62.4172477722168,37.5 61.0629997253418,38.854248046875 61.0629997253418,40.5 C61.0629997253418,40.5 61.0629997253418,57.375 61.0629997253418,57.375 C61.0629997253418,59.020751953125 62.4172477722168,60.375 64.06300354003906,60.375 C64.06300354003906,60.375 74.56300354003906,60.375 74.56300354003906,60.375 C76.20874786376953,60.375 77.56300354003906,59.020751953125 77.56300354003906,57.375 C77.56300354003906,57.375 77.56300354003906,40.5 77.56300354003906,40.5 C77.56300354003906,38.854248046875 76.20874786376953,37.5 74.56300354003906,37.5 C74.56300354003906,37.5 74.56300354003906,37.5 74.56300354003906,37.5z M65.31300354003906,20.187999725341797 C72.19499969482422,20.187999725341797 77.8280029296875,25.535999298095703 78.28299713134766,32.303001403808594 C81.49272155761719,33.760520935058594 83.56319427490234,36.974853515625 83.56300354003906,40.5 C83.56300354003906,40.5 83.56300354003906,57.375 83.56300354003906,57.375 C83.56371307373047,60.88862991333008 81.50699615478516,64.09475708007812 78.31300354003906,65.55899810791016 C78.31300354003906,65.55899810791016 78.31300354003906,66.81300354003906 78.31300354003906,66.81300354003906 C78.31300354003906,73.99299621582031 72.49299621582031,79.81300354003906 65.31300354003906,79.81300354003906 C65.31300354003906,79.81300354003906 29.437999725341797,79.81300354003906 29.437999725341797,79.81300354003906 C22.257999420166016,79.81300354003906 16.437999725341797,73.99299621582031 16.437999725341797,66.81300354003906 C16.437999725341797,66.81300354003906 16.437999725341797,33.1879997253418 16.437999725341797,33.1879997253418 C16.437999725341797,26.007999420166016 22.257999420166016,20.187999725341797 29.437999725341797,20.187999725341797 C29.437999725341797,20.187999725341797 65.31300354003906,20.187999725341797 65.31300354003906,20.187999725341797 C65.31300354003906,20.187999725341797 65.31300354003906,20.187999725341797 65.31300354003906,20.187999725341797z M29.437999725341797,26.187999725341797 C29.437999725341797,26.187999725341797 65.31300354003906,26.187999725341797 65.31300354003906,26.187999725341797 C68.51841735839844,26.1883544921875 71.33399200439453,28.38943862915039 72.10800170898438,31.5 C72.10800170898438,31.5 64.06199645996094,31.5 64.06199645996094,31.5 C59.1247444152832,31.5 55.0620002746582,35.562747955322266 55.0620002746582,40.5 C55.0620002746582,40.5 55.0620002746582,57.375 55.0620002746582,57.375 C55.0620002746582,62.312252044677734 59.1247444152832,66.375 64.06199645996094,66.375 C64.06199645996094,66.375 72.31199645996094,66.375 72.31199645996094,66.375 C72.31199645996094,66.375 72.31199645996094,66.81300354003906 72.31199645996094,66.81300354003906 C72.31199645996094,70.65308380126953 69.15208435058594,73.81300354003906 65.31199645996094,73.81300354003906 C65.31199645996094,73.81300354003906 29.437999725341797,73.81300354003906 29.437999725341797,73.81300354003906 C25.59791374206543,73.81300354003906 22.437999725341797,70.65308380126953 22.437999725341797,66.81300354003906 C22.437999725341797,66.81300354003906 22.437999725341797,33.1879997253418 22.437999725341797,33.1879997253418 C22.437999725341797,29.34791374206543 25.59791374206543,26.187999725341797 29.437999725341797,26.187999725341797 C29.437999725341797,26.187999725341797 29.437999725341797,26.187999725341797 29.437999725341797,26.187999725341797z"></path></g></g></g></g></svg>