<svg xmlns="http://www.w3.org/2000/svg" xmlns:xlink="http://www.w3.org/1999/xlink" viewBox="0 0 512 512" width="512" height="512" style="width: 100%; height: 100%; transform: translate3d(0,0,0); content-visibility: visible;" preserveAspectRatio="xMidYMid meet"><defs><clipPath id="__lottie_element_2"><rect width="512" height="512" x="0" y="0"></rect></clipPath><clipPath id="__lottie_element_4"><path d="M0,0 L216,0 L216,216 L0,216z"></path></clipPath></defs><g clip-path="url(#__lottie_element_2)"><g clip-path="url(#__lottie_element_4)" style="display: block;" transform="matrix(2.370370388031006,0,0,2.370370388031006,0,0)" opacity="1"><g style="display: block;" transform="matrix(1,0,0,1,0,0)" opacity="1"><g opacity="1" transform="matrix(1,0,0,1,0,0)"><path fill="rgb(255,255,255)" fill-opacity="1" d=" M112.84500122070312,69.6969985961914 C109.77999877929688,69.6969985961914 107.40699768066406,70.14299774169922 103.94599914550781,72.51599884033203 C103.94599914550781,72.51599884033203 89.80599975585938,82.30500030517578 89.80599975585938,82.30500030517578 C87.48300170898438,83.93599700927734 86.59300231933594,85.61699676513672 86.59300231933594,87.89099884033203 C86.59300231933594,91.05500030517578 88.81800079345703,93.23100280761719 91.83399963378906,93.23100280761719 C93.36599731445312,93.23100280761719 94.40399932861328,92.88400268554688 95.78900146484375,91.89600372314453 C95.78900146484375,91.89600372314453 106.22100067138672,84.62799835205078 106.22100067138672,84.62799835205078 C106.22100067138672,84.62799835205078 106.51699829101562,84.62799835205078 106.51699829101562,84.62799835205078 C106.51699829101562,84.62799835205078 106.51699829101562,135.697998046875 106.51699829101562,135.697998046875 C106.51699829101562,140.19700622558594 109.53299713134766,143.16299438476562 113.93299865722656,143.16299438476562 C118.33300018310547,143.16299438476562 121.29900360107422,140.19700622558594 121.29900360107422,135.697998046875 C121.29900360107422,135.697998046875 121.29900360107422,78.0530014038086 121.29900360107422,78.0530014038086 C121.29900360107422,72.91100311279297 118.13500213623047,69.6969985961914 112.84500122070312,69.6969985961914 C112.84500122070312,69.6969985961914 112.84500122070312,69.6969985961914 112.84500122070312,69.6969985961914z M140,38.625 C153.30099487304688,38.625 159.95199584960938,38.625 165.03199768066406,41.2140007019043 C169.5001220703125,43.490570068359375 173.13442993164062,47.12487030029297 175.41099548339844,51.59299850463867 C178,56.67300033569336 178,62.95000076293945 178,75.50700378417969 C178,75.50700378417969 178,88.625 178,88.625 C178,148 168,157.375 143.625,174.875 C127.8030014038086,186.23399353027344 114.25,192.375 108,192.375 C101.75,192.375 88.1969985961914,186.23399353027344 72.375,174.875 C48,157.375 38,148 38,88.625 C38,88.625 38,75.50700378417969 38,75.50700378417969 C38,62.95100021362305 38,56.67300033569336 40.5890007019043,51.59299850463867 C42.865455627441406,47.124542236328125 46.499759674072266,43.48988723754883 50.96799850463867,41.2130012512207 C56.04800033569336,38.625 62.698001861572266,38.625 76,38.625 C76,38.625 140,38.625 140,38.625 C140,38.625 140,38.625 140,38.625z"></path></g></g></g></g></svg>