<svg xmlns="http://www.w3.org/2000/svg" xmlns:xlink="http://www.w3.org/1999/xlink" viewBox="0 0 512 512" width="512" height="512" style="width: 100%; height: 100%; transform: translate3d(0,0,0); content-visibility: visible;" preserveAspectRatio="xMidYMid meet"><defs><clipPath id="__lottie_element_2"><rect width="512" height="512" x="0" y="0"></rect></clipPath></defs><g clip-path="url(#__lottie_element_2)"><g style="display: block;" transform="matrix(1.333299994468689,0,0,1.333299994468689,0,0)" opacity="1"><g opacity="1" transform="matrix(1,0,0,1,0,0)"><g opacity="1" transform="matrix(0.75,0,0,0.75,0,0)"><path stroke-linecap="butt" stroke-linejoin="miter" fill-opacity="0" stroke-miterlimit="4" stroke="rgb(255,255,255)" stroke-opacity="1" stroke-width="30.72" d=" M419.8800048828125,179.1999969482422 C419.8800048828125,221.6199951171875 346.5199890136719,256 256.0400085449219,256 C165.5500030517578,256 92.19999694824219,221.6199951171875 92.19999694824219,179.1999969482422 C92.19999694824219,136.7899932861328 165.5500030517578,102.4000015258789 256.0400085449219,102.4000015258789 C346.5199890136719,102.4000015258789 419.8800048828125,136.7899932861328 419.8800048828125,179.1999969482422"></path></g><g opacity="1" transform="matrix(0.75,0,0,0.75,0,0)"><path stroke-linecap="round" stroke-linejoin="miter" fill-opacity="0" stroke-miterlimit="4" stroke="rgb(255,255,255)" stroke-opacity="1" stroke-width="30.72" d=" M419.8800048828125,286.70001220703125 C390.0899963378906,314.3500061035156 325.54998779296875,332.7799987792969 256.0400085449219,332.7799987792969 C186.52999877929688,332.7799987792969 121.98999786376953,312.0400085449219 92.19999694824219,286.70001220703125"></path></g><g opacity="1" transform="matrix(0.75,0,0,0.75,0,0)"><path stroke-linecap="round" stroke-linejoin="miter" fill-opacity="0" stroke-miterlimit="4" stroke="rgb(255,255,255)" stroke-opacity="1" stroke-width="30.72" d=" M419.8800048828125,368.6499938964844 C390.0899963378906,396.29998779296875 325.54998779296875,414.7300109863281 256.0400085449219,414.7300109863281 C186.52999877929688,414.7300109863281 121.98999786376953,393.989990234375 92.19999694824219,368.6499938964844"></path></g></g></g></g></svg>