<svg xmlns="http://www.w3.org/2000/svg" xmlns:xlink="http://www.w3.org/1999/xlink" viewBox="0 0 512 512" width="512" height="512" style="width: 100%; height: 100%; transform: translate3d(0,0,0); content-visibility: visible;" preserveAspectRatio="xMidYMid meet"><defs><clipPath id="__lottie_element_2"><rect width="512" height="512" x="0" y="0"></rect></clipPath><clipPath id="__lottie_element_4"><path d="M0,0 L100,0 L100,100 L0,100z"></path></clipPath></defs><g clip-path="url(#__lottie_element_2)"><g clip-path="url(#__lottie_element_4)" style="display: block;" transform="matrix(5.119999885559082,0,0,5.119999885559082,0,0)" opacity="1"><g style="display: block;" transform="matrix(1.333299994468689,0,0,1.333299994468689,0,0)" opacity="1"><g opacity="1" transform="matrix(1,0,0,1,0,0)"><g opacity="1" transform="matrix(1,0,0,1,0,0)"><path fill="rgb(255,255,255)" fill-opacity="1" d=" M41.91999816894531,11.640000343322754 C41.310001373291016,12.25 41.310001373291016,13.239999771118164 41.91999816894531,13.850000381469727 C41.91999816894531,13.850000381469727 52.27000045776367,24.200000762939453 52.27000045776367,24.200000762939453 C52.880001068115234,24.809999465942383 53.869998931884766,24.809999465942383 54.47999954223633,24.200000762939453 C55.09000015258789,23.59000015258789 55.09000015258789,22.600000381469727 54.47999954223633,21.989999771118164 C54.47999954223633,21.989999771118164 44.130001068115234,11.640000343322754 44.130001068115234,11.640000343322754 C43.52000045776367,11.029999732971191 42.529998779296875,11.029999732971191 41.91999816894531,11.640000343322754 C41.91999816894531,11.640000343322754 41.91999816894531,11.640000343322754 41.91999816894531,11.640000343322754z M22.889999389648438,30.65999984741211 C22.280000686645508,31.270000457763672 22.280000686645508,32.27000045776367 22.889999389648438,32.880001068115234 C22.889999389648438,32.880001068115234 33.2400016784668,43.22999954223633 33.2400016784668,43.22999954223633 C33.849998474121094,43.84000015258789 34.84000015258789,43.84000015258789 35.45000076293945,43.22999954223633 C36.060001373291016,42.619998931884766 36.060001373291016,41.630001068115234 35.45000076293945,41.02000045776367 C35.45000076293945,41.02000045776367 25.100000381469727,30.65999984741211 25.100000381469727,30.65999984741211 C24.489999771118164,30.049999237060547 23.5,30.049999237060547 22.889999389648438,30.65999984741211 C22.889999389648438,30.65999984741211 22.889999389648438,30.65999984741211 22.889999389648438,30.65999984741211z M44.2400016784668,36.380001068115234 C44.2400016784668,36.380001068115234 57.459999084472656,49.61000061035156 57.459999084472656,49.61000061035156 C58.279998779296875,50.43000030517578 59.61000061035156,50.43000030517578 60.43000030517578,49.61000061035156 C61.25,48.790000915527344 61.25,47.459999084472656 60.43000030517578,46.63999938964844 C60.43000030517578,46.63999938964844 47.20000076293945,33.40999984741211 47.20000076293945,33.40999984741211 C47.20000076293945,33.40999984741211 45.720001220703125,34.900001525878906 45.720001220703125,34.900001525878906 C45.720001220703125,34.900001525878906 44.2400016784668,36.380001068115234 44.2400016784668,36.380001068115234z M37.70000076293945,37.20000076293945 C37.70000076293945,37.20000076293945 45.77000045776367,29.1299991607666 45.77000045776367,29.1299991607666 C45.77000045776367,29.1299991607666 48.27000045776367,26.6299991607666 48.27000045776367,26.6299991607666 C48.27000045776367,26.6299991607666 39.4900016784668,17.850000381469727 39.4900016784668,17.850000381469727 C39.4900016784668,17.850000381469727 34.08000183105469,23.260000228881836 34.08000183105469,23.260000228881836 C34.08000183105469,23.260000228881836 28.920000076293945,28.420000076293945 28.920000076293945,28.420000076293945 C28.920000076293945,28.420000076293945 37.70000076293945,37.20000076293945 37.70000076293945,37.20000076293945z M20.030000686645508,35.72999954223633 C17.84000015258789,33.540000915527344 17.84000015258789,30 20.030000686645508,27.809999465942383 C21.459999084472656,26.3799991607666 23.469999313354492,25.8799991607666 25.299999237060547,26.31999969482422 C25.299999237060547,26.31999969482422 31.219999313354492,20.399999618530273 31.219999313354492,20.399999618530273 C31.219999313354492,20.399999618530273 37.56999969482422,14.050000190734863 37.56999969482422,14.050000190734863 C37.130001068115234,12.220000267028809 37.630001068115234,10.210000038146973 39.060001373291016,8.779999732971191 C41.25,6.590000152587891 44.790000915527344,6.590000152587891 46.97999954223633,8.779999732971191 C46.97999954223633,8.779999732971191 57.34000015258789,19.1299991607666 57.34000015258789,19.1299991607666 C59.529998779296875,21.31999969482422 59.529998779296875,24.8700008392334 57.34000015258789,27.059999465942383 C55.90999984741211,28.489999771118164 53.90999984741211,28.989999771118164 52.06999969482422,28.549999237060547 C52.06999969482422,28.549999237060547 50.060001373291016,30.559999465942383 50.060001373291016,30.559999465942383 C50.060001373291016,30.559999465942383 63.290000915527344,43.790000915527344 63.290000915527344,43.790000915527344 C65.68000030517578,46.189998626708984 65.68000030517578,50.06999969482422 63.290000915527344,52.459999084472656 C60.900001525878906,54.86000061035156 57,54.86000061035156 54.61000061035156,52.459999084472656 C54.61000061035156,52.459999084472656 41.380001068115234,39.22999954223633 41.380001068115234,39.22999954223633 C41.380001068115234,39.22999954223633 39.79999923706055,40.81999969482422 39.79999923706055,40.81999969482422 C40.2400016784668,42.650001525878906 39.7400016784668,44.65999984741211 38.310001373291016,46.09000015258789 C36.119998931884766,48.279998779296875 32.56999969482422,48.279998779296875 30.3799991607666,46.09000015258789 C30.3799991607666,46.09000015258789 20.030000686645508,35.72999954223633 20.030000686645508,35.72999954223633z"></path></g><g opacity="1" transform="matrix(0.75,0,0,0.75,0,0)"><path stroke-linecap="round" stroke-linejoin="round" fill-opacity="0" stroke="rgb(255,255,255)" stroke-opacity="1" stroke-width="5.39" d=" M55.33000183105469,82.30999755859375 C55.33000183105469,82.30999755859375 51.02000045776367,82.30999755859375 51.02000045776367,82.30999755859375 M17.360000610351562,82.30999755859375 C17.360000610351562,82.30999755859375 17.360000610351562,77.31999969482422 17.360000610351562,77.31999969482422 C17.360000610351562,74.3499984741211 19.770000457763672,71.94000244140625 22.739999771118164,71.94000244140625 C22.739999771118164,71.94000244140625 45.63999938964844,71.94000244140625 45.63999938964844,71.94000244140625 C48.61000061035156,71.94000244140625 51.02000045776367,74.3499984741211 51.02000045776367,77.31999969482422 C51.02000045776367,77.31999969482422 51.02000045776367,82.30999755859375 51.02000045776367,82.30999755859375 M17.360000610351562,82.30999755859375 C17.360000610351562,82.30999755859375 51.02000045776367,82.30999755859375 51.02000045776367,82.30999755859375 M13.050000190734863,82.30999755859375 C13.050000190734863,82.30999755859375 17.360000610351562,82.30999755859375 17.360000610351562,82.30999755859375"></path></g></g></g></g></g></svg>