<svg xmlns="http://www.w3.org/2000/svg" xmlns:xlink="http://www.w3.org/1999/xlink" viewBox="0 0 512 512" width="512" height="512" style="width: 100%; height: 100%; transform: translate3d(0,0,0); content-visibility: visible;" preserveAspectRatio="xMidYMid meet"><defs><clipPath id="__lottie_element_2"><rect width="512" height="512" x="0" y="0"></rect></clipPath><clipPath id="__lottie_element_4"><path d="M0,0 L100,0 L100,100 L0,100z"></path></clipPath></defs><g clip-path="url(#__lottie_element_2)"><g clip-path="url(#__lottie_element_4)" style="display: block;" transform="matrix(5.119999885559082,0,0,5.119999885559082,0,0)" opacity="1"><g style="display: block;" transform="matrix(1,0,0,1,0,0)" opacity="1"><g opacity="1" transform="matrix(1,0,0,1,0,0)"><path fill-rule="evenodd" fill="rgb(255,255,255)" fill-opacity="1" d=" M76.0250015258789,46.23400115966797 C76.0250015258789,46.23400115966797 76.0250015258789,43.80400085449219 76.0250015258789,43.80400085449219 C76.0250015258789,29.77400016784668 64.6510009765625,18.398000717163086 50.619998931884766,18.398000717163086 C36.5890007019043,18.398000717163086 25.21500015258789,29.773000717163086 25.214000701904297,43.803001403808594 C25.214000701904297,43.803001403808594 25.214000701904297,67.94200134277344 25.214000701904297,67.94200134277344 C25.214008331298828,69.99311065673828 24.577613830566406,71.99456024169922 23.39299964904785,73.66899871826172 C23.39299964904785,73.66899871826172 19.854999542236328,78.66899871826172 19.854999542236328,78.66899871826172 C19.009395599365234,79.86631774902344 19.90618324279785,81.60018920898438 21.371999740600586,81.60199737548828 C21.371999740600586,81.60199737548828 63.04199981689453,81.60199737548828 63.04199981689453,81.60199737548828 C70.21199798583984,81.60199737548828 76.0250015258789,75.78900146484375 76.0250015258789,68.61900329589844 C76.0250015258789,68.61900329589844 76.0250015258789,46.23400115966797 76.0250015258789,46.23400115966797 C76.0250015258789,46.23400115966797 76.0250015258789,46.23400115966797 76.0250015258789,46.23400115966797z M71.45999908447266,51.24700164794922 C70.79812622070312,53.04527282714844 69.07521057128906,54.24702835083008 67.15899658203125,54.24700164794922 C67.15899658203125,54.24700164794922 34.2130012512207,54.24700164794922 34.2130012512207,54.24700164794922 C32.134334564208984,54.24674987792969 30.303768157958984,52.832332611083984 29.77899932861328,50.82099914550781 C29.77899932861328,50.82099914550781 29.77899932861328,43.803001403808594 29.77899932861328,43.803001403808594 C29.77899932861328,32.292999267578125 39.10900115966797,22.96299934387207 50.61899948120117,22.96299934387207 C62.12900161743164,22.96299934387207 71.45999908447266,32.292999267578125 71.45999908447266,43.803001403808594 C71.45999908447266,43.803001403808594 71.45999908447266,51.24700164794922 71.45999908447266,51.24700164794922 C71.45999908447266,51.24700164794922 71.45999908447266,51.24700164794922 71.45999908447266,51.24700164794922z M67.15899658203125,58.8120002746582 C67.15899658203125,58.8120002746582 34.2130012512207,58.8120002746582 34.2130012512207,58.8120002746582 C32.66168975830078,58.81432342529297 31.135223388671875,58.420143127441406 29.77899932861328,57.66699981689453 C29.77899932861328,57.66699981689453 29.77899932861328,67.94200134277344 29.77899932861328,67.94200134277344 C29.77899932861328,70.93800354003906 28.849000930786133,73.86000061035156 27.118999481201172,76.30599975585938 C27.118999481201172,76.30599975585938 26.60099983215332,77.03700256347656 26.60099983215332,77.03700256347656 C26.60099983215332,77.03700256347656 63.04100036621094,77.03700256347656 63.04100036621094,77.03700256347656 C67.65969848632812,77.03700256347656 71.46044921875,73.2366943359375 71.46099853515625,68.61799621582031 C71.46099853515625,68.61799621582031 71.46099853515625,57.7400016784668 71.46099853515625,57.7400016784668 C70.13736724853516,58.446571350097656 68.65940856933594,58.81520080566406 67.15899658203125,58.8129997253418 C67.15899658203125,58.8129997253418 67.15899658203125,58.8120002746582 67.15899658203125,58.8120002746582z"></path></g><g opacity="1" transform="matrix(1,0,0,1,0,0)"><path stroke-linecap="round" stroke-linejoin="round" fill-opacity="0" stroke="rgb(255,255,255)" stroke-opacity="1" stroke-width="0.5" d=" M71.46099853515625,51.24599838256836 C70.79912567138672,53.04426956176758 69.07621002197266,54.246028900146484 67.16000366210938,54.24599838256836 C67.16000366210938,54.24599838256836 34.2130012512207,54.24599838256836 34.2130012512207,54.24599838256836 C32.134334564208984,54.245750427246094 30.303768157958984,52.83133316040039 29.77899932861328,50.81999969482422 C29.77899932861328,50.81999969482422 29.77899932861328,43.801998138427734 29.77899932861328,43.801998138427734 C29.77899932861328,32.29199981689453 39.10900115966797,22.961999893188477 50.61899948120117,22.961999893188477 C62.12900161743164,22.961999893188477 71.45999908447266,32.29199981689453 71.45999908447266,43.801998138427734 C71.45999908447266,43.801998138427734 71.45999908447266,51.24599838256836 71.45999908447266,51.24599838256836 C71.45999908447266,51.24599838256836 71.46099853515625,51.24599838256836 71.46099853515625,51.24599838256836z M67.16000366210938,58.81100082397461 C67.16000366210938,58.81100082397461 34.2130012512207,58.81100082397461 34.2130012512207,58.81100082397461 C32.66168975830078,58.813323974609375 31.135223388671875,58.41913986206055 29.77899932861328,57.66600036621094 C29.77899932861328,57.66600036621094 29.77899932861328,67.94100189208984 29.77899932861328,67.94100189208984 C29.77899932861328,70.93699645996094 28.849000930786133,73.85900115966797 27.118999481201172,76.30500030517578 C27.118999481201172,76.30500030517578 26.60099983215332,77.03600311279297 26.60099983215332,77.03600311279297 C26.60099983215332,77.03600311279297 63.04100036621094,77.03600311279297 63.04100036621094,77.03600311279297 C67.65969848632812,77.03600311279297 71.46044921875,73.2356948852539 71.46099853515625,68.61699676513672 C71.46099853515625,68.61699676513672 71.46099853515625,57.7400016784668 71.46099853515625,57.7400016784668 C70.13736724853516,58.446571350097656 68.65940856933594,58.81520080566406 67.15899658203125,58.8129997253418 C67.15899658203125,58.8129997253418 67.16000366210938,58.81100082397461 67.16000366210938,58.81100082397461z M19.51300048828125,79.74299621582031 C19.512998580932617,80.76261138916016 20.351390838623047,81.6019058227539 21.371000289916992,81.60299682617188 M23.39299964904785,73.66899871826172 C23.39299964904785,73.66899871826172 19.854999542236328,78.66899871826172 19.854999542236328,78.66899871826172 C19.632692337036133,78.98296356201172 19.513174057006836,79.3582992553711 19.51300048828125,79.74299621582031 M25.214000701904297,43.803001403808594 C25.214000701904297,43.803001403808594 25.214000701904297,67.94200134277344 25.214000701904297,67.94200134277344 C25.214008331298828,69.99311065673828 24.577613830566406,71.99456024169922 23.39299964904785,73.66899871826172 M50.619998931884766,18.398000717163086 C36.5890007019043,18.398000717163086 25.21500015258789,29.773000717163086 25.214000701904297,43.803001403808594 M76.0250015258789,43.80400085449219 C76.0250015258789,29.77400016784668 64.6510009765625,18.398000717163086 50.619998931884766,18.398000717163086 M76.0250015258789,43.80400085449219 C76.0250015258789,43.80400085449219 76.0250015258789,68.62000274658203 76.0250015258789,68.62000274658203 C76.0250015258789,75.79000091552734 70.21199798583984,81.60199737548828 63.04199981689453,81.60199737548828 C63.04199981689453,81.60199737548828 21.371999740600586,81.60199737548828 21.371999740600586,81.60199737548828"></path></g><g opacity="1" transform="matrix(1,0,0,1,0,0)"><path fill="rgb(255,255,255)" fill-opacity="1" d=" M42.56399917602539,46.9010009765625 C44.617000579833984,46.9010009765625 46.28200149536133,44.82099914550781 46.28200149536133,42.25400161743164 C46.28200149536133,39.6870002746582 44.617000579833984,37.606998443603516 42.56399917602539,37.606998443603516 C40.51100158691406,37.606998443603516 38.84600067138672,39.6870002746582 38.84600067138672,42.25400161743164 C38.84600067138672,44.82099914550781 40.51100158691406,46.9010009765625 42.56399917602539,46.9010009765625 C42.56399917602539,46.9010009765625 42.56399917602539,46.9010009765625 42.56399917602539,46.9010009765625z M58.67499923706055,46.9010009765625 C60.72800064086914,46.9010009765625 62.393001556396484,44.82099914550781 62.393001556396484,42.25400161743164 C62.393001556396484,39.6870002746582 60.72800064086914,37.606998443603516 58.67499923706055,37.606998443603516 C56.62099838256836,37.606998443603516 54.957000732421875,39.6870002746582 54.957000732421875,42.25400161743164 C54.957000732421875,44.82099914550781 56.62099838256836,46.9010009765625 58.67499923706055,46.9010009765625 C58.67499923706055,46.9010009765625 58.67499923706055,46.9010009765625 58.67499923706055,46.9010009765625z M15.114999771118164,46.23400115966797 C15.114999771118164,46.23400115966797 15.114999771118164,66.82499694824219 15.114999771118164,66.82499694824219 C15.114999771118164,66.82499694824219 19.679000854492188,66.82499694824219 19.679000854492188,66.82499694824219 C19.679000854492188,66.82499694824219 19.679000854492188,46.23400115966797 19.679000854492188,46.23400115966797 C19.679000854492188,46.23400115966797 15.114999771118164,46.23400115966797 15.114999771118164,46.23400115966797 C15.114999771118164,46.23400115966797 15.114999771118164,46.23400115966797 15.114999771118164,46.23400115966797z M15.114999771118164,66.82499694824219 C15.114999771118164,68.07686614990234 16.145132064819336,69.10700225830078 17.39699935913086,69.10700225830078 C18.648868560791016,69.10700225830078 19.679000854492188,68.07686614990234 19.679000854492188,66.82499694824219 C19.679000854492188,66.82499694824219 15.114999771118164,66.82499694824219 15.114999771118164,66.82499694824219 C15.114999771118164,66.82499694824219 15.114999771118164,66.82499694824219 15.114999771118164,66.82499694824219z M19.68000030517578,46.23400115966797 C19.68000030517578,44.98185729980469 18.649642944335938,43.951499938964844 17.397499084472656,43.951499938964844 C16.145357131958008,43.951499938964844 15.114999771118164,44.98185729980469 15.114999771118164,46.23400115966797 C15.114999771118164,46.23400115966797 19.679000854492188,46.23400115966797 19.679000854492188,46.23400115966797 C19.679000854492188,46.23400115966797 19.68000030517578,46.23400115966797 19.68000030517578,46.23400115966797z M80.32099914550781,46.23400115966797 C80.32099914550781,46.23400115966797 80.32099914550781,66.82499694824219 80.32099914550781,66.82499694824219 C80.32099914550781,66.82499694824219 84.88500213623047,66.82499694824219 84.88500213623047,66.82499694824219 C84.88500213623047,66.82499694824219 84.88500213623047,46.23400115966797 84.88500213623047,46.23400115966797 C84.88500213623047,46.23400115966797 80.32099914550781,46.23400115966797 80.32099914550781,46.23400115966797 C80.32099914550781,46.23400115966797 80.32099914550781,46.23400115966797 80.32099914550781,46.23400115966797z M80.32099914550781,66.82499694824219 C80.32099914550781,68.07686614990234 81.35113525390625,69.10700225830078 82.60299682617188,69.10700225830078 C83.85486602783203,69.10700225830078 84.88500213623047,68.07686614990234 84.88500213623047,66.82499694824219 C84.88500213623047,66.82499694824219 80.32099914550781,66.82499694824219 80.32099914550781,66.82499694824219 C80.32099914550781,66.82499694824219 80.32099914550781,66.82499694824219 80.32099914550781,66.82499694824219z M84.88500213623047,46.23400115966797 C84.88500213623047,44.98213195800781 83.85486602783203,43.95199966430664 82.60299682617188,43.95199966430664 C81.35113525390625,43.95199966430664 80.32099914550781,44.98213195800781 80.32099914550781,46.23400115966797 C80.32099914550781,46.23400115966797 84.88500213623047,46.23400115966797 84.88500213623047,46.23400115966797 C84.88500213623047,46.23400115966797 84.88500213623047,46.23400115966797 84.88500213623047,46.23400115966797z"></path></g></g></g></g></svg>