<svg xmlns="http://www.w3.org/2000/svg" xmlns:xlink="http://www.w3.org/1999/xlink" viewBox="0 0 512 512" width="512" height="512" style="width: 100%; height: 100%; transform: translate3d(0,0,0); content-visibility: visible;" preserveAspectRatio="xMidYMid meet"><defs><clipPath id="__lottie_element_2"><rect width="512" height="512" x="0" y="0"></rect></clipPath><clipPath id="__lottie_element_4"><path d="M0,0 L101,0 L101,100 L0,100z"></path></clipPath></defs><g clip-path="url(#__lottie_element_2)"><g clip-path="url(#__lottie_element_4)" style="display: block;" transform="matrix(5.06930685043335,0,0,5.06930685043335,0,2.534653425216675)" opacity="1"><g style="display: block;" transform="matrix(1,0,0,1,0,0)" opacity="1"><g opacity="1" transform="matrix(1,0,0,1,0,0)"><path fill-rule="evenodd" fill="rgb(255,255,255)" fill-opacity="1" d=" M65.4729995727539,39.93899917602539 C64.8015365600586,38.74308776855469 63.26491165161133,38.3115348815918 62.069000244140625,38.983001708984375 C60.87308883666992,39.65446472167969 60.441532135009766,41.19108581542969 61.112998962402344,42.387001037597656 C61.112998962402344,42.387001037597656 65.34700012207031,49.926998138427734 65.34700012207031,49.926998138427734 C65.34700012207031,49.926998138427734 60.7599983215332,57.492000579833984 60.7599983215332,57.492000579833984 C60.042442321777344,58.6607666015625 60.41373062133789,60.212974548339844 61.58249282836914,60.9305305480957 C62.751258850097656,61.64809036254883 64.31744384765625,61.25376510620117 65.03500366210938,60.084999084472656 C65.03500366210938,60.084999084472656 68.15799713134766,54.935001373291016 68.15799713134766,54.935001373291016 C68.15799713134766,54.935001373291016 71.00900268554688,60.012001037597656 71.00900268554688,60.012001037597656 C71.68046569824219,61.20791244506836 73.21708679199219,61.63946533203125 74.41300201416016,60.96799850463867 C75.6089096069336,60.296531677246094 76.04046630859375,58.75991439819336 75.36900329589844,57.56399917602539 C75.36900329589844,57.56399917602539 71.13600158691406,50.02399826049805 71.13600158691406,50.02399826049805 C71.13600158691406,50.02399826049805 75.7229995727539,42.45899963378906 75.7229995727539,42.45899963378906 C76.43396759033203,41.286128997802734 76.05387115478516,39.735965728759766 74.88099670410156,39.025001525878906 C73.7081298828125,38.31403732299805 72.15796661376953,38.69412612915039 71.4469985961914,39.867000579833984 C71.4469985961914,39.867000579833984 68.3239974975586,45.016998291015625 68.3239974975586,45.016998291015625 C68.3239974975586,45.016998291015625 65.4739990234375,39.93899917602539 65.4739990234375,39.93899917602539 C65.4739990234375,39.93899917602539 65.4729995727539,39.93899917602539 65.4729995727539,39.93899917602539z M44.35100173950195,38.983001708984375 C45.54682540893555,38.31150817871094 47.0835075378418,38.74317169189453 47.755001068115234,39.93899917602539 C47.755001068115234,39.93899917602539 50.60499954223633,45.016998291015625 50.60499954223633,45.016998291015625 C50.60499954223633,45.016998291015625 53.729000091552734,39.867000579833984 53.729000091552734,39.867000579833984 C54.44389343261719,38.702571868896484 55.987770080566406,38.328880310058594 57.15603256225586,39.0374870300293 C58.32429504394531,39.746097564697266 58.706302642822266,41.28793716430664 58.00400161743164,42.459999084472656 C58.00400161743164,42.459999084472656 53.41699981689453,50.02399826049805 53.41699981689453,50.02399826049805 C53.41699981689453,50.02399826049805 57.650001525878906,57.56399917602539 57.650001525878906,57.56399917602539 C58.321468353271484,58.75991439819336 57.88991165161133,60.296531677246094 56.694000244140625,60.96799850463867 C55.49808883666992,61.63946533203125 53.96146774291992,61.20791244506836 53.290000915527344,60.012001037597656 C53.290000915527344,60.012001037597656 50.439998626708984,54.933998107910156 50.439998626708984,54.933998107910156 C50.439998626708984,54.933998107910156 47.31700134277344,60.08399963378906 47.31700134277344,60.08399963378906 C46.60603713989258,61.25687026977539 45.05587387084961,61.636962890625 43.882999420166016,60.92599868774414 C42.71012878417969,60.21503448486328 42.33003616333008,58.66487121582031 43.04100036621094,57.492000579833984 C43.04100036621094,57.492000579833984 47.62799835205078,49.926998138427734 47.62799835205078,49.926998138427734 C47.62799835205078,49.926998138427734 43.39500045776367,42.387001037597656 43.39500045776367,42.387001037597656 C42.7235107421875,41.1911735534668 43.155174255371094,39.65449142456055 44.35100173950195,38.983001708984375 C44.35100173950195,38.983001708984375 44.35100173950195,38.983001708984375 44.35100173950195,38.983001708984375z M30.035999298095703,39.93899917602539 C29.364534378051758,38.74308776855469 27.827913284301758,38.3115348815918 26.631999969482422,38.983001708984375 C25.436086654663086,39.65446472167969 25.004533767700195,41.19108581542969 25.676000595092773,42.387001037597656 C25.676000595092773,42.387001037597656 29.90999984741211,49.926998138427734 29.90999984741211,49.926998138427734 C29.90999984741211,49.926998138427734 25.32200050354004,57.492000579833984 25.32200050354004,57.492000579833984 C24.610761642456055,58.66487121582031 24.99062728881836,60.21525955200195 26.16349983215332,60.92649841308594 C27.33637237548828,61.63773727416992 28.886760711669922,61.25787353515625 29.597999572753906,60.084999084472656 C29.597999572753906,60.084999084472656 32.72100067138672,54.935001373291016 32.72100067138672,54.935001373291016 C32.72100067138672,54.935001373291016 35.57099914550781,60.012001037597656 35.57099914550781,60.012001037597656 C36.24246597290039,61.20791244506836 37.77908706665039,61.63946533203125 38.974998474121094,60.96799850463867 C40.17091369628906,60.296531677246094 40.60246658325195,58.75991439819336 39.930999755859375,57.56399917602539 C39.930999755859375,57.56399917602539 35.698001861572266,50.02399826049805 35.698001861572266,50.02399826049805 C35.698001861572266,50.02399826049805 40.28499984741211,42.45899963378906 40.28499984741211,42.45899963378906 C40.97059631347656,41.287994384765625 40.58404541015625,39.76164245605469 39.42372131347656,39.0581169128418 C38.26340103149414,38.35459518432617 36.73128128051758,38.71763229370117 36.0099983215332,39.867000579833984 C36.0099983215332,39.867000579833984 32.887001037597656,45.016998291015625 32.887001037597656,45.016998291015625 C32.887001037597656,45.016998291015625 30.035999298095703,39.93899917602539 30.035999298095703,39.93899917602539 C30.035999298095703,39.93899917602539 30.035999298095703,39.93899917602539 30.035999298095703,39.93899917602539z M27.722999572753906,29.913000106811523 C28.658000946044922,29.68199920654297 29.863000869750977,29.663000106811523 33.18299865722656,29.663000106811523 C33.18299865722656,29.663000106811523 67.86299896240234,29.663000106811523 67.86299896240234,29.663000106811523 C71.18299865722656,29.663000106811523 72.38700103759766,29.68199920654297 73.3219985961914,29.913000106811523 C76.3732681274414,30.67109489440918 78.76439666748047,33.0626106262207 79.52200317382812,36.11399841308594 C79.75399780273438,37.04800033569336 79.77200317382812,38.25400161743164 79.77200317382812,41.57400131225586 C79.77200317382812,41.57400131225586 79.77200317382812,58.37799835205078 79.77200317382812,58.37799835205078 C79.77200317382812,61.698001861572266 79.75399780273438,62.90299987792969 79.52200317382812,63.8380012512207 C78.76407623291016,66.88900756835938 76.37300872802734,69.28007507324219 73.3219985961914,70.03800201416016 C72.38700103759766,70.2699966430664 71.18199920654297,70.28800201416016 67.86199951171875,70.28800201416016 C67.86199951171875,70.28800201416016 33.18199920654297,70.28800201416016 33.18199920654297,70.28800201416016 C29.86199951171875,70.28800201416016 28.658000946044922,70.2699966430664 27.722999572753906,70.03800201416016 C24.671995162963867,69.28007507324219 22.280925750732422,66.88900756835938 21.523000717163086,63.8380012512207 C21.291000366210938,62.90299987792969 21.273000717163086,61.698001861572266 21.273000717163086,58.37799835205078 C21.273000717163086,58.37799835205078 21.273000717163086,41.573001861572266 21.273000717163086,41.573001861572266 C21.273000717163086,38.25299835205078 21.291000366210938,37.04800033569336 21.523000717163086,36.11399841308594 C22.280925750732422,33.06299591064453 24.671995162963867,30.671926498413086 27.722999572753906,29.913999557495117 C27.722999572753906,29.913999557495117 27.722999572753906,29.913000106811523 27.722999572753906,29.913000106811523z M33.18299865722656,24.663000106811523 C33.18299865722656,24.663000106811523 32.8120002746582,24.663000106811523 32.8120002746582,24.663000106811523 C29.999000549316406,24.663000106811523 28.125999450683594,24.66200065612793 26.51799964904785,25.06100082397461 C21.672061920166016,26.264942169189453 17.87445068359375,30.06294059753418 16.67099952697754,34.909000396728516 C16.270999908447266,36.516998291015625 16.270999908447266,38.388999938964844 16.273000717163086,41.20199966430664 C16.273000717163086,41.20199966430664 16.273000717163086,58.75 16.273000717163086,58.75 C16.27199935913086,61.5629997253418 16.270999908447266,63.43600082397461 16.67099952697754,65.04399871826172 C17.874774932861328,69.88967895507812 21.67232322692871,73.68722534179688 26.51799964904785,74.89099884033203 C28.125999450683594,75.29100036621094 29.99799919128418,75.29000091552734 32.8120002746582,75.28900146484375 C32.8120002746582,75.28900146484375 68.23400115966797,75.28900146484375 68.23400115966797,75.28900146484375 C71.0469970703125,75.29000091552734 72.91899871826172,75.29100036621094 74.5270004272461,74.89099884033203 C79.37267303466797,73.68722534179688 83.17022705078125,69.88967895507812 84.3740005493164,65.04399871826172 C84.77400207519531,63.43600082397461 84.77400207519531,61.56399917602539 84.77300262451172,58.75 C84.77300262451172,58.75 84.77300262451172,41.202999114990234 84.77300262451172,41.202999114990234 C84.77300262451172,38.388999938964844 84.77300262451172,36.516998291015625 84.3740005493164,34.909000396728516 C83.17054748535156,30.06294059753418 79.37294006347656,26.264942169189453 74.5270004272461,25.06100082397461 C72.91899871826172,24.660999298095703 71.0469970703125,24.66200065612793 68.23400115966797,24.663000106811523 C68.23400115966797,24.663000106811523 33.18299865722656,24.663000106811523 33.18299865722656,24.663000106811523 C33.18299865722656,24.663000106811523 33.18299865722656,24.663000106811523 33.18299865722656,24.663000106811523z"></path></g></g></g></g></svg>